# xmcd
# Copyright (C) 1995-1998 Ti Kan
#
# Track frame offsets:
#       182
#       7352
#       34047
#       39990
#       59760
#       64305
#       86207
#       109840
#       117937
#       134195
#       152132
#       156722
#       177710
#       190307
#       193755
#       209645
#
# Disc length: 3295 seconds
#
# Revision: 0
# Processed by: cddbd v1.5.2PL0 Copyright (c) Steve Scherf et al.
# Submitted via: CD-Import v1.0
#
DISCID=080cdd10
DTITLE=Marilyn Manson - Smells Like Children
DYEAR=1995
DGENRE=
TTITLE0=The Hands Of Small Children
TTITLE1=Diary Of A Dope Fiend
TTITLE2=S*****y Chicken Gang Bang
TTITLE3=Kiddie Grinder
TTITLE4=Sympathy For The Parents
TTITLE5=Sweet Dreams
TTITLE6=Everlasting C**** Sucker
TTITLE7=Fuck Frankie
TTITLE8=I Put A Spell On You
TTITLE9=May Cause Discoloration Of The Urine Of Feces
TTITLE10=Scales, Guns And Peanut Butter
TTITLE11=Dance Of The Dope Hats
TTITLE12=White Trash
TTITLE13=Dancing With The One-Legged...
TTITLE14=Rock 'n' Roll Nigger
TTITLE15=Bonus
EXTD=
EXTT0=
EXTT1=
EXTT2=
EXTT3=
EXTT4=
EXTT5=
EXTT6=
EXTT7=
EXTT8=
EXTT9=
EXTT10=
EXTT11=
EXTT12=
EXTT13=
EXTT14=
EXTT15=
PLAYORDER=
